<svg xmlns="http://www.w3.org/2000/svg" viewBox="0 0 63 63" width="63" height="63">
	<defs>
		<linearGradient id="grd1" gradientUnits="userSpaceOnUse"  x1="3124.586" y1="6238.07" x2="3124.586" y2="0.07">
			<stop offset="0" stop-color="#0052cc"  />
			<stop offset="1" stop-color="#2684ff"  />
		</linearGradient>
	</defs>
	<style>
		tspan { white-space:pre }
		.shp0 { fill: url(#grd1) } 
	</style>
	<g id="Layer">
		<path id="Layer" fill-rule="evenodd" class="shp0" d="M55.59 0.07C59.68 0.08 62.99 3.39 63 7.48L63 55C63.01 56.97 62.23 58.86 60.84 60.26C59.45 61.66 57.56 62.45 55.59 62.45L8 62.45C6.03 62.45 4.14 61.66 2.74 60.27C1.35 58.87 0.57 56.97 0.58 55L0.58 7.48C0.59 3.39 3.91 0.07 8 0.07L55.59 0.07ZM27.47 14.05C27.46 12.69 26.36 11.59 25 11.58L14.6 11.58C13.24 11.59 12.14 12.69 12.14 14.05L12.14 45C12.14 46.36 13.24 47.46 14.6 47.47L25 47.47C25.66 47.48 26.29 47.22 26.76 46.75C27.23 46.29 27.5 45.66 27.5 45L27.47 14.05ZM51.46 14.05C51.46 12.69 50.36 11.59 49 11.58L38.6 11.58C37.24 11.59 36.14 12.69 36.13 14.05L36.13 30.79C36.14 32.15 37.24 33.25 38.6 33.26L49 33.26C49.66 33.27 50.3 33.01 50.77 32.55C51.24 32.08 51.5 31.45 51.5 30.79L51.46 14.05Z" />
	</g>
</svg>